<svg xmlns="http://www.w3.org/2000/svg" viewBox="0 0 1600 520" width="1600" height="520" fill="none">
<g opacity="1">
<line x1="0" y1="260.0" x2="0" y2="260.0" stroke="#565A45" stroke-width="2"/><line x1="26" y1="316.9" x2="26" y2="203.1" stroke="#565A45" stroke-width="2"/><line x1="52" y1="365.3" x2="52" y2="154.7" stroke="#565A45" stroke-width="2"/><line x1="78" y1="397.9" x2="78" y2="122.1" stroke="#565A45" stroke-width="2"/><line x1="104" y1="410.0" x2="104" y2="110.0" stroke="#565A45" stroke-width="2"/><line x1="130" y1="399.6" x2="130" y2="120.4" stroke="#565A45" stroke-width="2"/><line x1="156" y1="368.4" x2="156" y2="151.6" stroke="#565A45" stroke-width="2"/><line x1="182" y1="321.0" x2="182" y2="199.0" stroke="#565A45" stroke-width="2"/><line x1="208" y1="264.5" x2="208" y2="255.5" stroke="#565A45" stroke-width="2"/><line x1="234" y1="207.3" x2="234" y2="312.7" stroke="#565A45" stroke-width="2"/><line x1="260" y1="158.0" x2="260" y2="362.0" stroke="#565A45" stroke-width="2"/><line x1="286" y1="123.9" x2="286" y2="396.1" stroke="#565A45" stroke-width="2"/><line x1="312" y1="110.2" x2="312" y2="409.8" stroke="#565A45" stroke-width="2"/><line x1="338" y1="118.8" x2="338" y2="401.2" stroke="#565A45" stroke-width="2"/><line x1="364" y1="148.5" x2="364" y2="371.5" stroke="#565A45" stroke-width="2"/><line x1="390" y1="194.9" x2="390" y2="325.1" stroke="#565A45" stroke-width="2"/><line x1="416" y1="251.0" x2="416" y2="269.0" stroke="#565A45" stroke-width="2"/><line x1="442" y1="308.5" x2="442" y2="211.5" stroke="#565A45" stroke-width="2"/><line x1="468" y1="358.7" x2="468" y2="161.3" stroke="#565A45" stroke-width="2"/><line x1="494" y1="394.2" x2="494" y2="125.8" stroke="#565A45" stroke-width="2"/><line x1="520" y1="409.6" x2="520" y2="110.4" stroke="#565A45" stroke-width="2"/><line x1="546" y1="402.7" x2="546" y2="117.3" stroke="#565A45" stroke-width="2"/><line x1="572" y1="374.4" x2="572" y2="145.6" stroke="#565A45" stroke-width="2"/><line x1="598" y1="329.1" x2="598" y2="190.9" stroke="#565A45" stroke-width="2"/><line x1="624" y1="273.4" x2="624" y2="246.6" stroke="#565A45" stroke-width="2"/><line x1="650" y1="215.8" x2="650" y2="304.2" stroke="#565A45" stroke-width="2"/><line x1="676" y1="164.7" x2="676" y2="355.3" stroke="#565A45" stroke-width="2"/><line x1="702" y1="127.9" x2="702" y2="392.1" stroke="#565A45" stroke-width="2"/><line x1="728" y1="110.8" x2="728" y2="409.2" stroke="#565A45" stroke-width="2"/><line x1="754" y1="116.0" x2="754" y2="404.0" stroke="#565A45" stroke-width="2"/><line x1="780" y1="142.7" x2="780" y2="377.3" stroke="#565A45" stroke-width="2"/><line x1="806" y1="187.0" x2="806" y2="333.0" stroke="#565A45" stroke-width="2"/><line x1="832" y1="242.1" x2="832" y2="277.9" stroke="#565A45" stroke-width="2"/><line x1="858" y1="299.9" x2="858" y2="220.1" stroke="#565A45" stroke-width="2"/><line x1="884" y1="351.8" x2="884" y2="168.2" stroke="#565A45" stroke-width="2"/><line x1="910" y1="389.9" x2="910" y2="130.1" stroke="#565A45" stroke-width="2"/><line x1="936" y1="408.6" x2="936" y2="111.4" stroke="#565A45" stroke-width="2"/><line x1="962" y1="405.2" x2="962" y2="114.8" stroke="#565A45" stroke-width="2"/><line x1="988" y1="380.0" x2="988" y2="140.0" stroke="#565A45" stroke-width="2"/><line x1="1014" y1="336.9" x2="1014" y2="183.1" stroke="#565A45" stroke-width="2"/><line x1="1040" y1="282.4" x2="1040" y2="237.6" stroke="#565A45" stroke-width="2"/><line x1="1066" y1="224.4" x2="1066" y2="295.6" stroke="#565A45" stroke-width="2"/><line x1="1092" y1="171.8" x2="1092" y2="348.2" stroke="#565A45" stroke-width="2"/><line x1="1118" y1="132.4" x2="1118" y2="387.6" stroke="#565A45" stroke-width="2"/><line x1="1144" y1="112.0" x2="1144" y2="408.0" stroke="#565A45" stroke-width="2"/><line x1="1170" y1="113.8" x2="1170" y2="406.2" stroke="#565A45" stroke-width="2"/><line x1="1196" y1="137.3" x2="1196" y2="382.7" stroke="#565A45" stroke-width="2"/><line x1="1222" y1="179.2" x2="1222" y2="340.8" stroke="#565A45" stroke-width="2"/><line x1="1248" y1="233.2" x2="1248" y2="286.8" stroke="#565A45" stroke-width="2"/><line x1="1274" y1="291.2" x2="1274" y2="228.8" stroke="#565A45" stroke-width="2"/><line x1="1300" y1="344.5" x2="1300" y2="175.5" stroke="#565A45" stroke-width="2"/><line x1="1326" y1="385.2" x2="1326" y2="134.8" stroke="#565A45" stroke-width="2"/><line x1="1352" y1="407.2" x2="1352" y2="112.8" stroke="#565A45" stroke-width="2"/><line x1="1378" y1="407.2" x2="1378" y2="112.8" stroke="#565A45" stroke-width="2"/><line x1="1404" y1="385.2" x2="1404" y2="134.8" stroke="#565A45" stroke-width="2"/><line x1="1430" y1="344.5" x2="1430" y2="175.5" stroke="#565A45" stroke-width="2"/><line x1="1456" y1="291.2" x2="1456" y2="228.8" stroke="#565A45" stroke-width="2"/><line x1="1482" y1="233.2" x2="1482" y2="286.8" stroke="#565A45" stroke-width="2"/><line x1="1508" y1="179.2" x2="1508" y2="340.8" stroke="#565A45" stroke-width="2"/><line x1="1534" y1="137.3" x2="1534" y2="382.7" stroke="#565A45" stroke-width="2"/><line x1="1560" y1="113.8" x2="1560" y2="406.2" stroke="#565A45" stroke-width="2"/><line x1="1586" y1="112.0" x2="1586" y2="408.0" stroke="#565A45" stroke-width="2"/>
<path d="M0,260.0 L8,277.9 L16,295.6 L24,312.7 L32,329.1 L40,344.5 L48,358.7 L56,371.5 L64,382.7 L72,392.1 L80,399.6 L88,405.2 L96,408.6 L104,410.0 L112,409.2 L120,406.2 L128,401.2 L136,394.2 L144,385.2 L152,374.4 L160,362.0 L168,348.2 L176,333.0 L184,316.9 L192,299.9 L200,282.4 L208,264.5 L216,246.6 L224,228.8 L232,211.5 L240,194.9 L248,179.2 L256,164.7 L264,151.6 L272,140.0 L280,130.1 L288,122.1 L296,116.0 L304,112.0 L312,110.2 L320,110.4 L328,112.8 L336,117.3 L344,123.9 L352,132.4 L360,142.7 L368,154.7 L376,168.2 L384,183.1 L392,199.0 L400,215.8 L408,233.2 L416,251.0 L424,269.0 L432,286.8 L440,304.2 L448,321.0 L456,336.9 L464,351.8 L472,365.3 L480,377.3 L488,387.6 L496,396.1 L504,402.7 L512,407.2 L520,409.6 L528,409.8 L536,408.0 L544,404.0 L552,397.9 L560,389.9 L568,380.0 L576,368.4 L584,355.3 L592,340.8 L600,325.1 L608,308.5 L616,291.2 L624,273.4 L632,255.5 L640,237.6 L648,220.1 L656,203.1 L664,187.0 L672,171.8 L680,158.0 L688,145.6 L696,134.8 L704,125.8 L712,118.8 L720,113.8 L728,110.8 L736,110.0 L744,111.4 L752,114.8 L760,120.4 L768,127.9 L776,137.3 L784,148.5 L792,161.3 L800,175.5 L808,190.9 L816,207.3 L824,224.4 L832,242.1 L840,260.0 L848,277.9 L856,295.6 L864,312.7 L872,329.1 L880,344.5 L888,358.7 L896,371.5 L904,382.7 L912,392.1 L920,399.6 L928,405.2 L936,408.6 L944,410.0 L952,409.2 L960,406.2 L968,401.2 L976,394.2 L984,385.2 L992,374.4 L1000,362.0 L1008,348.2 L1016,333.0 L1024,316.9 L1032,299.9 L1040,282.4 L1048,264.5 L1056,246.6 L1064,228.8 L1072,211.5 L1080,194.9 L1088,179.2 L1096,164.7 L1104,151.6 L1112,140.0 L1120,130.1 L1128,122.1 L1136,116.0 L1144,112.0 L1152,110.2 L1160,110.4 L1168,112.8 L1176,117.3 L1184,123.9 L1192,132.4 L1200,142.7 L1208,154.7 L1216,168.2 L1224,183.1 L1232,199.0 L1240,215.8 L1248,233.2 L1256,251.0 L1264,269.0 L1272,286.8 L1280,304.2 L1288,321.0 L1296,336.9 L1304,351.8 L1312,365.3 L1320,377.3 L1328,387.6 L1336,396.1 L1344,402.7 L1352,407.2 L1360,409.6 L1368,409.8 L1376,408.0 L1384,404.0 L1392,397.9 L1400,389.9 L1408,380.0 L1416,368.4 L1424,355.3 L1432,340.8 L1440,325.1 L1448,308.5 L1456,291.2 L1464,273.4 L1472,255.5 L1480,237.6 L1488,220.1 L1496,203.1 L1504,187.0 L1512,171.8 L1520,158.0 L1528,145.6 L1536,134.8 L1544,125.8 L1552,118.8 L1560,113.8 L1568,110.8 L1576,110.0 L1584,111.4 L1592,114.8 L1600,120.4" stroke="#565A45" stroke-width="3" fill="none"/>
<path d="M0,260.0 L8,242.1 L16,224.4 L24,207.3 L32,190.9 L40,175.5 L48,161.3 L56,148.5 L64,137.3 L72,127.9 L80,120.4 L88,114.8 L96,111.4 L104,110.0 L112,110.8 L120,113.8 L128,118.8 L136,125.8 L144,134.8 L152,145.6 L160,158.0 L168,171.8 L176,187.0 L184,203.1 L192,220.1 L200,237.6 L208,255.5 L216,273.4 L224,291.2 L232,308.5 L240,325.1 L248,340.8 L256,355.3 L264,368.4 L272,380.0 L280,389.9 L288,397.9 L296,404.0 L304,408.0 L312,409.8 L320,409.6 L328,407.2 L336,402.7 L344,396.1 L352,387.6 L360,377.3 L368,365.3 L376,351.8 L384,336.9 L392,321.0 L400,304.2 L408,286.8 L416,269.0 L424,251.0 L432,233.2 L440,215.8 L448,199.0 L456,183.1 L464,168.2 L472,154.7 L480,142.7 L488,132.4 L496,123.9 L504,117.3 L512,112.8 L520,110.4 L528,110.2 L536,112.0 L544,116.0 L552,122.1 L560,130.1 L568,140.0 L576,151.6 L584,164.7 L592,179.2 L600,194.9 L608,211.5 L616,228.8 L624,246.6 L632,264.5 L640,282.4 L648,299.9 L656,316.9 L664,333.0 L672,348.2 L680,362.0 L688,374.4 L696,385.2 L704,394.2 L712,401.2 L720,406.2 L728,409.2 L736,410.0 L744,408.6 L752,405.2 L760,399.6 L768,392.1 L776,382.7 L784,371.5 L792,358.7 L800,344.5 L808,329.1 L816,312.7 L824,295.6 L832,277.9 L840,260.0 L848,242.1 L856,224.4 L864,207.3 L872,190.9 L880,175.5 L888,161.3 L896,148.5 L904,137.3 L912,127.9 L920,120.4 L928,114.8 L936,111.4 L944,110.0 L952,110.8 L960,113.8 L968,118.8 L976,125.8 L984,134.8 L992,145.6 L1000,158.0 L1008,171.8 L1016,187.0 L1024,203.1 L1032,220.1 L1040,237.6 L1048,255.5 L1056,273.4 L1064,291.2 L1072,308.5 L1080,325.1 L1088,340.8 L1096,355.3 L1104,368.4 L1112,380.0 L1120,389.9 L1128,397.9 L1136,404.0 L1144,408.0 L1152,409.8 L1160,409.6 L1168,407.2 L1176,402.7 L1184,396.1 L1192,387.6 L1200,377.3 L1208,365.3 L1216,351.8 L1224,336.9 L1232,321.0 L1240,304.2 L1248,286.8 L1256,269.0 L1264,251.0 L1272,233.2 L1280,215.8 L1288,199.0 L1296,183.1 L1304,168.2 L1312,154.7 L1320,142.7 L1328,132.4 L1336,123.9 L1344,117.3 L1352,112.8 L1360,110.4 L1368,110.2 L1376,112.0 L1384,116.0 L1392,122.1 L1400,130.1 L1408,140.0 L1416,151.6 L1424,164.7 L1432,179.2 L1440,194.9 L1448,211.5 L1456,228.8 L1464,246.6 L1472,264.5 L1480,282.4 L1488,299.9 L1496,316.9 L1504,333.0 L1512,348.2 L1520,362.0 L1528,374.4 L1536,385.2 L1544,394.2 L1552,401.2 L1560,406.2 L1568,409.2 L1576,410.0 L1584,408.6 L1592,405.2 L1600,399.6" stroke="#565A45" stroke-width="3" fill="none"/>
<circle cx="0" cy="260.0" r="4.5" fill="#565A45"/><circle cx="0" cy="260.0" r="4.5" fill="#565A45"/><circle cx="26" cy="316.9" r="4.5" fill="#565A45"/><circle cx="26" cy="203.1" r="4.5" fill="#565A45"/><circle cx="52" cy="365.3" r="4.5" fill="#565A45"/><circle cx="52" cy="154.7" r="4.5" fill="#565A45"/><circle cx="78" cy="397.9" r="4.5" fill="#565A45"/><circle cx="78" cy="122.1" r="4.5" fill="#565A45"/><circle cx="104" cy="410.0" r="4.5" fill="#565A45"/><circle cx="104" cy="110.0" r="4.5" fill="#565A45"/><circle cx="130" cy="399.6" r="4.5" fill="#565A45"/><circle cx="130" cy="120.4" r="4.5" fill="#565A45"/><circle cx="156" cy="368.4" r="4.5" fill="#565A45"/><circle cx="156" cy="151.6" r="4.5" fill="#565A45"/><circle cx="182" cy="321.0" r="4.5" fill="#565A45"/><circle cx="182" cy="199.0" r="4.5" fill="#565A45"/><circle cx="208" cy="264.5" r="4.5" fill="#565A45"/><circle cx="208" cy="255.5" r="4.5" fill="#565A45"/><circle cx="234" cy="207.3" r="4.5" fill="#565A45"/><circle cx="234" cy="312.7" r="4.5" fill="#565A45"/><circle cx="260" cy="158.0" r="4.5" fill="#565A45"/><circle cx="260" cy="362.0" r="4.5" fill="#565A45"/><circle cx="286" cy="123.9" r="4.5" fill="#565A45"/><circle cx="286" cy="396.1" r="4.5" fill="#565A45"/><circle cx="312" cy="110.2" r="4.5" fill="#565A45"/><circle cx="312" cy="409.8" r="4.5" fill="#565A45"/><circle cx="338" cy="118.8" r="4.5" fill="#565A45"/><circle cx="338" cy="401.2" r="4.5" fill="#565A45"/><circle cx="364" cy="148.5" r="4.5" fill="#565A45"/><circle cx="364" cy="371.5" r="4.5" fill="#565A45"/><circle cx="390" cy="194.9" r="4.5" fill="#565A45"/><circle cx="390" cy="325.1" r="4.5" fill="#565A45"/><circle cx="416" cy="251.0" r="4.5" fill="#565A45"/><circle cx="416" cy="269.0" r="4.5" fill="#565A45"/><circle cx="442" cy="308.5" r="4.5" fill="#565A45"/><circle cx="442" cy="211.5" r="4.5" fill="#565A45"/><circle cx="468" cy="358.7" r="4.5" fill="#565A45"/><circle cx="468" cy="161.3" r="4.5" fill="#565A45"/><circle cx="494" cy="394.2" r="4.5" fill="#565A45"/><circle cx="494" cy="125.8" r="4.5" fill="#565A45"/><circle cx="520" cy="409.6" r="4.5" fill="#565A45"/><circle cx="520" cy="110.4" r="4.5" fill="#565A45"/><circle cx="546" cy="402.7" r="4.5" fill="#565A45"/><circle cx="546" cy="117.3" r="4.5" fill="#565A45"/><circle cx="572" cy="374.4" r="4.5" fill="#565A45"/><circle cx="572" cy="145.6" r="4.5" fill="#565A45"/><circle cx="598" cy="329.1" r="4.5" fill="#565A45"/><circle cx="598" cy="190.9" r="4.5" fill="#565A45"/><circle cx="624" cy="273.4" r="4.5" fill="#565A45"/><circle cx="624" cy="246.6" r="4.5" fill="#565A45"/><circle cx="650" cy="215.8" r="4.5" fill="#565A45"/><circle cx="650" cy="304.2" r="4.5" fill="#565A45"/><circle cx="676" cy="164.7" r="4.5" fill="#565A45"/><circle cx="676" cy="355.3" r="4.5" fill="#565A45"/><circle cx="702" cy="127.9" r="4.5" fill="#565A45"/><circle cx="702" cy="392.1" r="4.5" fill="#565A45"/><circle cx="728" cy="110.8" r="4.5" fill="#565A45"/><circle cx="728" cy="409.2" r="4.5" fill="#565A45"/><circle cx="754" cy="116.0" r="4.5" fill="#565A45"/><circle cx="754" cy="404.0" r="4.5" fill="#565A45"/><circle cx="780" cy="142.7" r="4.5" fill="#565A45"/><circle cx="780" cy="377.3" r="4.5" fill="#565A45"/><circle cx="806" cy="187.0" r="4.5" fill="#565A45"/><circle cx="806" cy="333.0" r="4.5" fill="#565A45"/><circle cx="832" cy="242.1" r="4.5" fill="#565A45"/><circle cx="832" cy="277.9" r="4.5" fill="#565A45"/><circle cx="858" cy="299.9" r="4.5" fill="#565A45"/><circle cx="858" cy="220.1" r="4.5" fill="#565A45"/><circle cx="884" cy="351.8" r="4.5" fill="#565A45"/><circle cx="884" cy="168.2" r="4.5" fill="#565A45"/><circle cx="910" cy="389.9" r="4.5" fill="#565A45"/><circle cx="910" cy="130.1" r="4.5" fill="#565A45"/><circle cx="936" cy="408.6" r="4.5" fill="#565A45"/><circle cx="936" cy="111.4" r="4.5" fill="#565A45"/><circle cx="962" cy="405.2" r="4.5" fill="#565A45"/><circle cx="962" cy="114.8" r="4.5" fill="#565A45"/><circle cx="988" cy="380.0" r="4.5" fill="#565A45"/><circle cx="988" cy="140.0" r="4.5" fill="#565A45"/><circle cx="1014" cy="336.9" r="4.5" fill="#565A45"/><circle cx="1014" cy="183.1" r="4.5" fill="#565A45"/><circle cx="1040" cy="282.4" r="4.5" fill="#565A45"/><circle cx="1040" cy="237.6" r="4.5" fill="#565A45"/><circle cx="1066" cy="224.4" r="4.5" fill="#565A45"/><circle cx="1066" cy="295.6" r="4.5" fill="#565A45"/><circle cx="1092" cy="171.8" r="4.5" fill="#565A45"/><circle cx="1092" cy="348.2" r="4.5" fill="#565A45"/><circle cx="1118" cy="132.4" r="4.5" fill="#565A45"/><circle cx="1118" cy="387.6" r="4.5" fill="#565A45"/><circle cx="1144" cy="112.0" r="4.5" fill="#565A45"/><circle cx="1144" cy="408.0" r="4.5" fill="#565A45"/><circle cx="1170" cy="113.8" r="4.5" fill="#565A45"/><circle cx="1170" cy="406.2" r="4.5" fill="#565A45"/><circle cx="1196" cy="137.3" r="4.5" fill="#565A45"/><circle cx="1196" cy="382.7" r="4.5" fill="#565A45"/><circle cx="1222" cy="179.2" r="4.5" fill="#565A45"/><circle cx="1222" cy="340.8" r="4.5" fill="#565A45"/><circle cx="1248" cy="233.2" r="4.5" fill="#565A45"/><circle cx="1248" cy="286.8" r="4.5" fill="#565A45"/><circle cx="1274" cy="291.2" r="4.5" fill="#565A45"/><circle cx="1274" cy="228.8" r="4.5" fill="#565A45"/><circle cx="1300" cy="344.5" r="4.5" fill="#565A45"/><circle cx="1300" cy="175.5" r="4.5" fill="#565A45"/><circle cx="1326" cy="385.2" r="4.5" fill="#565A45"/><circle cx="1326" cy="134.8" r="4.5" fill="#565A45"/><circle cx="1352" cy="407.2" r="4.5" fill="#565A45"/><circle cx="1352" cy="112.8" r="4.5" fill="#565A45"/><circle cx="1378" cy="407.2" r="4.5" fill="#565A45"/><circle cx="1378" cy="112.8" r="4.5" fill="#565A45"/><circle cx="1404" cy="385.2" r="4.5" fill="#565A45"/><circle cx="1404" cy="134.8" r="4.5" fill="#565A45"/><circle cx="1430" cy="344.5" r="4.5" fill="#565A45"/><circle cx="1430" cy="175.5" r="4.5" fill="#565A45"/><circle cx="1456" cy="291.2" r="4.5" fill="#565A45"/><circle cx="1456" cy="228.8" r="4.5" fill="#565A45"/><circle cx="1482" cy="233.2" r="4.5" fill="#565A45"/><circle cx="1482" cy="286.8" r="4.5" fill="#565A45"/><circle cx="1508" cy="179.2" r="4.5" fill="#565A45"/><circle cx="1508" cy="340.8" r="4.5" fill="#565A45"/><circle cx="1534" cy="137.3" r="4.5" fill="#565A45"/><circle cx="1534" cy="382.7" r="4.5" fill="#565A45"/><circle cx="1560" cy="113.8" r="4.5" fill="#565A45"/><circle cx="1560" cy="406.2" r="4.5" fill="#565A45"/><circle cx="1586" cy="112.0" r="4.5" fill="#565A45"/><circle cx="1586" cy="408.0" r="4.5" fill="#565A45"/>
</g>
</svg>